PathFileType	4	(X/Y/Z)	/Users/itak/Documents/Research/Walk-IL/dataset/trc/00060_00006.trc
DataRate	CameraRate	NumFrames	NumMarkers	Units	OrigDataRate	OrigDataStartFrame	OrigNumFrames
100.000000	100.000000	4	53	mm	100.000000	0	729
Frame#	Time	RPSI			LPSI			L3			STRN			T10			C7			CLAV			RBAK			LBAK			LSHO			LUPA			LAEL			LAOL			LWTS			LWPS			LFRA			LIFD			LHPS			LHTS			RSHO			RUPA			RAEL			RAOL			RWTS			RWPS			RFRA			RIFD			RHTS			RHPS			RBHD			LFHD			RFHD			LBHD			LHIP			RHIP			RASI			LASI			LKNE			LTHI			LANK			LTIP			LTOE			LMT1			LMT5			LHEE			RKNE			RTHI			RANK			RTIP			RTOE			RMT1			RMT5			RHEE			
		X1	Y1	Z1	X2	Y2	Z2	X3	Y3	Z3	X4	Y4	Z4	X5	Y5	Z5	X6	Y6	Z6	X7	Y7	Z7	X8	Y8	Z8	X9	Y9	Z9	X10	Y10	Z10	X11	Y11	Z11	X12	Y12	Z12	X13	Y13	Z13	X14	Y14	Z14	X15	Y15	Z15	X16	Y16	Z16	X17	Y17	Z17	X18	Y18	Z18	X19	Y19	Z19	X20	Y20	Z20	X21	Y21	Z21	X22	Y22	Z22	X23	Y23	Z23	X24	Y24	Z24	X25	Y25	Z25	X26	Y26	Z26	X27	Y27	Z27	X28	Y28	Z28	X29	Y29	Z29	X30	Y30	Z30	X31	Y31	Z31	X32	Y32	Z32	X33	Y33	Z33	X34	Y34	Z34	X35	Y35	Z35	X36	Y36	Z36	X37	Y37	Z37	X38	Y38	Z38	X39	Y39	Z39	X40	Y40	Z40	X41	Y41	Z41	X42	Y42	Z42	X43	Y43	Z43	X44	Y44	Z44	X45	Y45	Z45	X46	Y46	Z46	X47	Y47	Z47	X48	Y48	Z48	X49	Y49	Z49	X50	Y50	Z50	X51	Y51	Z51	X52	Y52	Z52	X53	Y53	Z53	

1	0	-39.61539459228516	1035.5146484375	1276.144287109375	-65.70802307128906	1033.11083984375	1102.140258789062	-49.8296012878418	1081.141723632812	1181.298217773438	185.4851989746094	1290.976318359375	1166.547119140625	-77.86473083496094	1214.045776367188	1178.193237304688	-33.57337951660156	1483.589477539062	1170.481201171875	-84.72241973876953	1342.738403320312	1249.266235351562	149.8124847412109	1404.176635742188	1165.696533203125	-57.90235137939453	1444.399780273438	1070.579223632812	42.52751541137695	1452.238891601562	993.8919067382812	31.58743667602539	1324.619262695312	916.3964233398438	67.24352264404297	1111.673706054688	895.7465209960938	4.821697235107422	1092.052612304688	981.1446533203125	165.2034912109375	872.36572265625	951.7652587890625	108.0723114013672	862.4738159179688	890.3806762695312	92.11299133300781	1003.911437988281	885.3766479492188	181.0568237304688	685.5885009765625	963.1254272460938	141.7174377441406	781.6171875	893.010986328125	188.4217071533203	789.7138671875	945.9613647460938	40.05471420288086	1451.724243164062	1344.433715820312	34.57759475708008	1382.499145507812	1409.21630859375	20.0402946472168	1114.385131835938	1433.7578125	29.16884613037109	1096.419799804688	1336.111938476562	166.4557800292969	868.0938720703125	1378.014892578125	100.1963272094727	849.7808227539062	1431.864501953125	36.22898483276367	1034.986083984375	1436.61376953125	171.1867218017578	678.4913940429688	1356.489501953125	189.0369262695312	764.04150390625	1373.330688476562	135.9083862304688	761.948486328125	1429.312866210938	-1.953048586845398	1670.196655273438	1116.43701171875	183.1546783447266	1699.416015625	1222.353881835938	171.8529052734375	1704.285400390625	1096.4296875	19.35585784912109	1658.045043945312	1252.128540039062	29.4807186126709	966.1453857421875	1005.640014648438	30.70453834533691	965.362548828125	1349.035278320312	154.5735626220703	979.5844116210938	1317.189208984375	146.3271636962891	974.1347045898438	1047.689086914062	67.04811859130859	499.6935119628906	1049.221801757812	43.38694000244141	642.7114868164062	1015.280944824219	-36.95068359375	52.05413055419922	1044.568481445312	2.932634353637695	267.5947570800781	1033.339477539062	165.9280548095703	43.73400497436523	1024.715209960938	124.5878372192383	40.01760101318359	1084.415649414062	58.27205276489258	43.63514709472656	994.2097778320312	-81.88100433349609	48.12461090087891	1124.045654296875	79.46453094482422	517.6117553710938	1322.68408203125	104.5137557983398	789.8004760742188	1352.059692382812	-20.27556228637695	43.3582649230957	1323.393676757812	52.30400848388672	399.3399047851562	1330.40087890625	196.69921875	42.43790054321289	1286.259643554688	136.7773895263672	48.16832733154297	1246.473266601562	103.947265625	46.50516510009766	1339.532958984375	-66.54862213134766	47.02260208129883	1267.181030273438	
2	0.01	-39.56193923950195	1035.451416015625	1276.169799804688	-65.74911499023438	1033.059936523438	1102.151245117188	-49.85926818847656	1081.09423828125	1181.329833984375	185.4232330322266	1290.975830078125	1166.529663085938	-78.01361083984375	1214.020629882812	1178.22216796875	-33.69162368774414	1483.550048828125	1170.504516601562	-84.83118438720703	1342.69482421875	1249.306884765625	149.7373046875	1404.16015625	1165.679321289062	-58.00858306884766	1444.35546875	1070.637573242188	42.41048049926758	1452.183715820312	993.902099609375	31.46138000488281	1324.58349609375	916.4111938476562	67.04466247558594	1111.622802734375	895.67919921875	4.643823146820068	1092.01171875	981.0790405273438	165.076171875	872.357666015625	951.7073974609375	107.934928894043	862.4322509765625	890.3308715820312	91.96376800537109	1003.877136230469	885.3150634765625	181.0094146728516	685.592041015625	963.097900390625	141.5716857910156	781.5870361328125	892.9641723632812	188.3193817138672	789.7233276367188	945.9293212890625	39.99402618408203	1451.720092773438	1344.421997070312	34.53771209716797	1382.445434570312	1409.240234375	20.06162261962891	1114.348388671875	1433.804565429688	29.24829292297363	1096.341796875	1336.1494140625	166.7479705810547	868.1874389648438	1378.000244140625	100.439582824707	849.8078002929688	1431.856201171875	36.30276489257812	1034.942138671875	1436.657836914062	171.4860534667969	678.5643310546875	1356.3984375	189.3568420410156	764.0962524414062	1373.2666015625	136.4555206298828	761.9652709960938	1429.243896484375	-2.190385103225708	1670.116943359375	1116.548706054688	183.1105651855469	1699.418334960938	1222.2568359375	171.6190795898438	1704.268310546875	1096.348876953125	19.30098152160645	1657.969604492188	1252.196166992188	29.43524551391602	966.14404296875	1005.610046386719	30.83530044555664	965.3330688476562	1349.012573242188	154.6631622314453	979.584716796875	1317.13525390625	146.3016815185547	974.1997680664062	1047.618286132812	67.30495452880859	499.696044921875	1049.18359375	43.56800842285156	642.7139892578125	1015.251281738281	-36.94054412841797	52.06552886962891	1044.58837890625	3.089673042297363	267.5694885253906	1033.3388671875	165.9436798095703	43.72563552856445	1024.718872070312	124.5964889526367	40.0098762512207	1084.435791015625	58.27513122558594	43.64730072021484	994.218017578125	-81.86304473876953	48.13192367553711	1124.061889648438	79.51493072509766	517.616455078125	1322.612182617188	104.7498016357422	789.6585083007812	1351.899169921875	-20.28709411621094	43.36038970947266	1323.3896484375	52.31984329223633	399.321533203125	1330.363891601562	196.6962432861328	42.43730163574219	1286.260498046875	136.7769622802734	48.16839981079102	1246.47119140625	103.9380645751953	46.50752639770508	1339.53271484375	-66.54385375976562	47.00960540771484	1267.179321289062	
3	0.02	-39.49626541137695	1035.381713867188	1276.195922851562	-65.79097747802734	1032.998901367188	1102.161865234375	-49.88729476928711	1081.032470703125	1181.366577148438	185.3423156738281	1290.9765625	1166.506225585938	-78.18543243408203	1213.978881835938	1178.258544921875	-33.84319305419922	1483.5	1170.538818359375	-84.96465301513672	1342.630126953125	1249.359619140625	149.6408081054688	1404.1396484375	1165.65478515625	-58.15420913696289	1444.291748046875	1070.717163085938	42.25548934936523	1452.113891601562	993.9151611328125	31.2877197265625	1324.530029296875	916.4324340820312	66.78407287597656	1111.550659179688	895.6168212890625	4.422590732574463	1091.955200195312	981.0291748046875	164.915771484375	872.3436889648438	951.6661376953125	107.7618789672852	862.3722534179688	890.303955078125	91.76625061035156	1003.824096679688	885.2625122070312	180.9562225341797	685.5928344726562	963.103759765625	141.3901519775391	781.5398559570312	892.9453735351562	188.1800231933594	789.7247314453125	945.9243774414062	39.91166687011719	1451.71142578125	1344.415405273438	34.4907341003418	1382.380981445312	1409.268676757812	20.09524345397949	1114.300903320312	1433.862060546875	29.34061622619629	1096.252685546875	1336.193725585938	167.0951538085938	868.2953491210938	1377.972290039062	100.7336730957031	849.8379516601562	1431.850341796875	36.40272521972656	1034.889526367188	1436.71484375	171.8778533935547	678.6412963867188	1356.280395507812	189.7757110595703	764.2088623046875	1373.197998046875	137.0557708740234	761.9745483398438	1429.18359375	-2.470479965209961	1670.02685546875	1116.666381835938	183.048583984375	1699.417846679688	1222.140747070312	171.3363342285156	1704.24365234375	1096.252685546875	19.21453666687012	1657.885009765625	1252.265502929688	29.38512420654297	966.1430053710938	1005.569763183594	30.99431991577148	965.2976684570312	1348.978149414062	154.7691497802734	979.5764770507812	1317.066528320312	146.275146484375	974.2759399414062	1047.531005859375	67.61858367919922	499.6990356445312	1049.1416015625	43.78128814697266	642.7135620117188	1015.212951660156	-36.92466354370117	52.07886123657227	1044.612426757812	3.283177137374878	267.5396118164062	1033.339233398438	165.9613037109375	43.71844100952148	1024.724853515625	124.6080169677734	40.00138092041016	1084.453369140625	58.28154373168945	43.66089248657227	994.2293090820312	-81.84464263916016	48.14208221435547	1124.0791015625	79.54646301269531	517.6194458007812	1322.529541015625	105.0052108764648	789.50146484375	1351.714599609375	-20.29833984375	43.36031341552734	1323.388305664062	52.32018280029297	399.3024291992188	1330.322387695312	196.6904754638672	42.43671798706055	1286.261352539062	136.7757415771484	48.16779327392578	1246.468627929688	103.9276580810547	46.50974273681641	1339.533569335938	-66.53872680664062	46.99099349975586	1267.178344726562	
4	0.03	-39.4219970703125	1035.311889648438	1276.21826171875	-65.82813262939453	1032.931884765625	1102.169555664062	-49.9089469909668	1080.95751953125	1181.405517578125	185.2433013916016	1290.979125976562	1166.4775390625	-78.36592864990234	1213.917358398438	1178.301391601562	-34.02281188964844	1483.440551757812	1170.58544921875	-85.11545562744141	1342.54296875	1249.423095703125	149.5246429443359	1404.117065429688	1165.622314453125	-58.33824920654297	1444.208374023438	1070.816650390625	42.0642204284668	1452.032470703125	993.9299926757812	31.06508445739746	1324.457641601562	916.4608154296875	66.46928405761719	1111.45703125	895.5739135742188	4.170357704162598	1091.883178710938	981.0147094726562	164.7265472412109	872.3217163085938	951.6594848632812	107.5593032836914	862.2931518554688	890.3197631835938	91.52336883544922	1003.749572753906	885.23486328125	180.9029998779297	685.588134765625	963.1624145507812	141.1811676025391	781.473388671875	892.97607421875	188.0036163330078	789.7133178710938	945.9639282226562	39.80873107910156	1451.697509765625	1344.41748046875	34.44039916992188	1382.310546875	1409.2998046875	20.14301300048828	1114.244384765625	1433.925537109375	29.44060134887695	1096.159790039062	1336.241577148438	167.4727783203125	868.4088134765625	1377.9296875	101.0599212646484	849.8677368164062	1431.84912109375	36.52829360961914	1034.831909179688	1436.782836914062	172.3528442382812	678.7164916992188	1356.142456054688	190.2774963378906	764.3824462890625	1373.133544921875	137.6458282470703	761.970458984375	1429.14208984375	-2.776000738143921	1669.935424804688	1116.776733398438	182.9674377441406	1699.41357421875	1222.013305664062	171.0214233398438	1704.211547851562	1096.147216796875	19.09158325195312	1657.7998046875	1252.326171875	29.33623886108398	966.1422119140625	1005.520629882812	31.17087554931641	965.2581176757812	1348.930053710938	154.8844146728516	979.5575561523438	1316.9853515625	146.2506103515625	974.3565063476562	1047.432739257812	67.97183227539062	499.7017822265625	1049.100219726562	44.01255035400391	642.7088012695312	1015.167114257812	-36.90323257446289	52.09299850463867	1044.639770507812	3.50352954864502	267.5059204101562	1033.341186523438	165.9788665771484	43.71358871459961	1024.733032226562	124.6218948364258	39.9921989440918	1084.467041015625	58.29159927368164	43.67525482177734	994.2434692382812	-81.82808685302734	48.15377044677734	1124.095947265625	79.54476928710938	517.6196899414062	1322.44384765625	105.2488098144531	789.3463134765625	1351.524047851562	-20.30787086486816	43.35738372802734	1323.390502929688	52.29789733886719	399.2850952148438	1330.279663085938	196.6811218261719	42.43627548217773	1286.262329101562	136.7740631103516	48.16667175292969	1246.466186523438	103.9164428710938	46.51134872436523	1339.535400390625	-66.53460693359375	46.96612548828125	1267.177734375	
